HIERARCHY
ROOT Hips
{
	OFFSET 0.000000 0.000000 0.000000
	CHANNELS 6 Xposition Yposition Zposition Xrotation Yrotation Zrotation
	JOINT LeftUpLeg_virtual
	{
		OFFSET 0.000000 0.000000 0.000000
		CHANNELS 3 Xrotation Yrotation Zrotation
		JOINT LeftUpLeg
		{
			OFFSET 13.026900 -6.336304 -1.092800
			CHANNELS 3 Xrotation Yrotation Zrotation
			JOINT LeftLeg
			{
				OFFSET 0.524474 -46.096886 9.782700
				CHANNELS 3 Xrotation Yrotation Zrotation
				JOINT LeftFoot
				{
					OFFSET -0.524474 -53.427422 -12.948200
					CHANNELS 3 Xrotation Yrotation Zrotation
					JOINT LeftToeBase
					{
						OFFSET 0.192200 -14.009700 16.364100
						CHANNELS 3 Xrotation Yrotation Zrotation
						JOINT LeftToe_End
						{
							OFFSET -1.784700 -0.561700 9.474800
							CHANNELS 3 Xrotation Yrotation Zrotation
							End Site
							{
								OFFSET 0 0 0
							}
						}
					}
				}
			}
		}
	}
	JOINT RightUpLeg_virtual
	{
		OFFSET 0.000000 0.000000 0.000000
		CHANNELS 3 Xrotation Yrotation Zrotation
		JOINT RightUpLeg
		{
			OFFSET -12.883000 -6.336304 -1.092800
			CHANNELS 3 Xrotation Yrotation Zrotation
			JOINT RightLeg
			{
				OFFSET -0.524587 -46.096825 9.782800
				CHANNELS 3 Xrotation Yrotation Zrotation
				JOINT RightFoot
				{
					OFFSET 0.524587 -53.427383 -12.948300
					CHANNELS 3 Xrotation Yrotation Zrotation
					JOINT RightToeBase
					{
						OFFSET -0.192200 -14.009700 16.364100
						CHANNELS 3 Xrotation Yrotation Zrotation
						JOINT RightToe_End
						{
							OFFSET 1.784700 -0.561700 9.474800
							CHANNELS 3 Xrotation Yrotation Zrotation
							End Site
							{
								OFFSET 0 0 0
							}
						}
					}
				}
			}
		}
	}
	JOINT Spine_virtual
	{
		OFFSET 0.000000 0.000000 0.000000
		CHANNELS 3 Xrotation Yrotation Zrotation
		JOINT Spine
		{
			OFFSET 0.072000 7.257294 -0.789700
			CHANNELS 3 Xrotation Yrotation Zrotation
			JOINT Spine1
			{
				OFFSET 0.000000 12.508769 -0.658067
				CHANNELS 3 Xrotation Yrotation Zrotation
				JOINT Spine1_split
				{
					OFFSET 0.000000 12.508769 -0.658067
					CHANNELS 3 Xrotation Yrotation Zrotation
					JOINT Spine2
					{
						OFFSET 0.000000 12.508769 -0.658067
						CHANNELS 3 Xrotation Yrotation Zrotation
						JOINT Neck_virtual
						{
							OFFSET 0.000000 0.000000 0.000000
							CHANNELS 3 Xrotation Yrotation Zrotation
							JOINT Neck
							{
								OFFSET 0.000000 14.033295 7.520400
								CHANNELS 3 Xrotation Yrotation Zrotation
								JOINT Head
								{
									OFFSET 0.000000 8.198502 5.703100
									CHANNELS 3 Xrotation Yrotation Zrotation
									JOINT HeadTop_End
									{
										OFFSET 0.000000 17.760803 13.332701
										CHANNELS 3 Xrotation Yrotation Zrotation
										End Site
										{
											OFFSET 0 0 0
										}
									}
								}
							}
						}
						JOINT LeftShoulder_virtual
						{
							OFFSET 0.000000 0.000000 0.000000
							CHANNELS 3 Xrotation Yrotation Zrotation
							JOINT LeftShoulder
							{
								OFFSET 6.292450 5.785301 -0.669000
								CHANNELS 3 Xrotation Yrotation Zrotation
								JOINT LeftShoulder_split
								{
									OFFSET 6.292450 5.785301 -0.669000
									CHANNELS 3 Xrotation Yrotation Zrotation
									JOINT LeftArm
									{
										OFFSET 13.907140 -6.093903 1.965100
										CHANNELS 3 Xrotation Yrotation Zrotation
										JOINT LeftForeArm
										{
											OFFSET 34.140198 0.000000 0.000000
											CHANNELS 3 Xrotation Yrotation Zrotation
											JOINT LeftHand
											{
												OFFSET 40.960209 0.000000 0.000000
												CHANNELS 3 Xrotation Yrotation Zrotation
												End Site
												{
													OFFSET 0 0 0
												}
											}
										}
									}
								}
							}
						}
						JOINT RightShoulder_virtual
						{
							OFFSET 0.000000 0.000000 0.000000
							CHANNELS 3 Xrotation Yrotation Zrotation
							JOINT RightShoulder
							{
								OFFSET -6.292450 5.785301 -0.669000
								CHANNELS 3 Xrotation Yrotation Zrotation
								JOINT RightShoulder_split
								{
									OFFSET -6.292450 5.785301 -0.669000
									CHANNELS 3 Xrotation Yrotation Zrotation
									JOINT RightArm
									{
										OFFSET -13.907140 -6.093903 1.965100
										CHANNELS 3 Xrotation Yrotation Zrotation
										JOINT RightForeArm
										{
											OFFSET -34.140198 0.000000 0.000000
											CHANNELS 3 Xrotation Yrotation Zrotation
											JOINT RightHand
											{
												OFFSET -40.960209 0.000000 0.000000
												CHANNELS 3 Xrotation Yrotation Zrotation
												End Site
												{
													OFFSET 0 0 0
												}
											}
										}
									}
								}
							}
						}
					}
				}
			}
		}
	}
}
MOTION
Frames: 10
Frame Time: 0.03333333
-1.827021 15.106659 28.387686 0.000000 0.000000 0.000000 -88.434735 -2.638431 0.811984 -31.121699 17.168801 -4.785538 34.983737 -0.866068 -2.938516 3.759549 4.568383 9.741811 6.122247 -0.558777 1.411672 0.000000 0.000000 0.000000 -90.546383 -2.350435 -1.344368 -17.807975 -6.236497 -4.341667 12.384744 -3.611862 0.836978 17.031367 -0.533391 16.137309 -3.962933 -0.374062 -0.045648 0.000000 0.000000 0.000000 -86.701930 -3.199765 -1.674143 4.213587 2.545836 -1.907594 -1.207477 1.043066 -0.220925 0.468425 0.897946 -0.411660 0.000000 0.000000 0.000000 -2.213345 0.435017 0.170372 2.201019 0.728855 -0.002723 10.545960 -5.214870 10.234499 0.000000 0.000000 0.000000 -2.677220 1.021212 0.178015 1.023412 -14.264460 -3.718939 -2.990670 0.070710 -4.032867 27.759280 0.725386 -69.194393 -179.008480 -38.996070 -178.303208 0.000000 0.000000 0.000000 -1.944434 0.688987 -0.745931 1.325770 3.113243 0.203477 1.214237 4.264839 0.247978 12.122382 6.191793 72.613927 -179.595098 47.086474 -179.182582 0.000000 0.000000 0.000000 
-1.825987 15.106384 28.387718 0.000000 0.000000 0.000000 -88.432583 -2.638823 0.811807 -31.124694 17.165780 -4.787242 34.982952 -0.865288 -2.938615 3.761521 4.568834 9.740529 6.122615 -0.558851 1.411217 0.000000 0.000000 0.000000 -90.542627 -2.348135 -1.341156 -17.805758 -6.239750 -4.344169 12.383137 -3.611178 0.837400 17.033455 -0.535862 16.136134 -3.961686 -0.374630 -0.044780 0.000000 0.000000 0.000000 -86.699833 -3.201463 -1.676788 4.214508 2.545322 -1.907704 -1.209169 1.042828 -0.220955 0.469951 0.905038 -0.413055 0.000000 0.000000 0.000000 -2.214571 0.434208 0.169784 2.197227 0.728169 -0.003341 10.547374 -5.214148 10.231619 0.000000 0.000000 0.000000 -2.680512 1.021497 0.177152 1.025434 -14.264487 -3.712524 -2.993866 0.070165 -4.042198 27.761864 0.731675 -69.203128 -179.004423 -38.984725 -178.298837 0.000000 0.000000 0.000000 -1.946001 0.688823 -0.746333 1.323520 3.110520 0.199653 1.224050 4.270764 0.246686 12.130635 6.189053 72.613537 -179.596163 47.068691 -179.182527 0.000000 0.000000 0.000000 
-1.825074 15.104851 28.387909 0.000000 0.000000 0.000000 -88.428690 -2.638480 0.812131 -31.130629 17.162824 -4.789076 34.985250 -0.863985 -2.939246 3.763772 4.569973 9.739363 6.123852 -0.558779 1.411278 0.000000 0.000000 0.000000 -90.537217 -2.344919 -1.336995 -17.803959 -6.246169 -4.347526 12.381489 -3.612062 0.838066 17.032830 -0.542884 16.130766 -3.956648 -0.374956 -0.043354 0.000000 0.000000 0.000000 -86.696882 -3.203495 -1.679738 4.214012 2.542881 -1.906420 -1.211242 1.042349 -0.222141 0.468993 0.910389 -0.415099 0.000000 0.000000 0.000000 -2.214809 0.433940 0.168030 2.195982 0.729434 -0.001083 10.548072 -5.214720 10.233050 0.000000 0.000000 0.000000 -2.683704 1.021913 0.176346 1.028845 -14.264766 -3.691813 -2.995332 0.071609 -4.050441 27.768061 0.744518 -69.221549 -178.999765 -38.968401 -178.295121 0.000000 0.000000 0.000000 -1.948442 0.688253 -0.747385 1.321267 3.104407 0.192842 1.236639 4.283172 0.246925 12.141474 6.188775 72.614712 -179.594456 47.050916 -179.182131 0.000000 0.000000 0.000000 
-1.824285 15.102371 28.388136 0.000000 0.000000 0.000000 -88.423233 -2.638343 0.812619 -31.137135 17.160340 -4.791397 34.989317 -0.861984 -2.939762 3.764980 4.572002 9.738135 6.124701 -0.558599 1.411934 0.000000 0.000000 0.000000 -90.530053 -2.341311 -1.332411 -17.804147 -6.255103 -4.351615 12.379682 -3.613116 0.839205 17.031722 -0.552055 16.123888 -3.949444 -0.374904 -0.042030 0.000000 0.000000 0.000000 -86.693604 -3.205600 -1.682275 4.211561 2.538869 -1.903969 -1.213681 1.041524 -0.223723 0.467717 0.913379 -0.415721 0.000000 0.000000 0.000000 -2.214053 0.434386 0.165933 2.197175 0.732469 0.002948 10.545730 -5.218174 10.238604 0.000000 0.000000 0.000000 -2.686682 1.022783 0.176238 1.032543 -14.263019 -3.664950 -2.999265 0.072793 -4.054965 27.774981 0.760276 -69.241459 -178.995598 -38.954461 -178.291857 0.000000 0.000000 0.000000 -1.951705 0.687543 -0.748423 1.319162 3.096601 0.185634 1.248922 4.298335 0.248384 12.153258 6.188858 72.614050 -179.589961 47.038300 -179.182226 0.000000 0.000000 0.000000 
-1.823701 15.099266 28.387911 0.000000 0.000000 0.000000 -88.416218 -2.638997 0.812877 -31.142114 17.158460 -4.794159 34.993002 -0.859631 -2.939673 3.763798 4.574766 9.737189 6.124020 -0.558345 1.413016 0.000000 0.000000 0.000000 -90.521494 -2.338012 -1.327770 -17.806872 -6.265765 -4.355426 12.378118 -3.612652 0.840587 17.031186 -0.561171 16.118225 -3.943209 -0.374542 -0.041451 0.000000 0.000000 0.000000 -86.689458 -3.207551 -1.683681 4.207164 2.533976 -1.900178 -1.216533 1.040610 -0.224837 0.468813 0.911571 -0.414761 0.000000 0.000000 0.000000 -2.212470 0.435730 0.164593 2.200001 0.736792 0.007225 10.538087 -5.223566 10.246870 0.000000 0.000000 0.000000 -2.689002 1.024366 0.177295 1.035540 -14.255471 -3.642002 -3.004625 0.070592 -4.059344 27.780345 0.774007 -69.253344 -178.992702 -38.946285 -178.289234 0.000000 0.000000 0.000000 -1.955049 0.687111 -0.748675 1.317344 3.089872 0.180084 1.258077 4.315900 0.248187 12.163286 6.188050 72.608408 -179.583227 47.031607 -179.183429 0.000000 0.000000 0.000000 
-1.822935 15.095634 28.387636 0.000000 0.000000 0.000000 -88.408097 -2.640422 0.813065 -31.144440 17.157423 -4.797286 34.994474 -0.856881 -2.938970 3.759576 4.578161 9.737473 6.122529 -0.558084 1.414007 0.000000 0.000000 0.000000 -90.513325 -2.336051 -1.324044 -17.811306 -6.276661 -4.358212 12.377098 -3.610185 0.841535 17.030064 -0.569895 16.114356 -3.937967 -0.374089 -0.041679 0.000000 0.000000 0.000000 -86.684472 -3.209536 -1.683884 4.201356 2.529124 -1.894890 -1.219784 1.040026 -0.224598 0.472016 0.906937 -0.411235 0.000000 0.000000 0.000000 -2.210321 0.437776 0.164865 2.202778 0.741978 0.010390 10.524036 -5.231003 10.256825 0.000000 0.000000 0.000000 -2.691149 1.026864 0.179609 1.036674 -14.240151 -3.633046 -3.013373 0.064065 -4.063570 27.783400 0.786095 -69.249601 -178.991760 -38.946743 -178.286939 0.000000 0.000000 0.000000 -1.958359 0.687271 -0.747735 1.316396 3.087321 0.177257 1.263950 4.334220 0.247643 12.170557 6.186392 72.596414 -179.575331 47.026802 -179.185532 0.000000 0.000000 0.000000 
-1.822062 15.091888 28.386652 0.000000 0.000000 0.000000 -88.400823 -2.643053 0.812837 -31.143969 17.156769 -4.800217 34.992432 -0.854164 -2.937706 3.753384 4.582188 9.739468 6.121788 -0.557817 1.414501 0.000000 0.000000 0.000000 -90.507376 -2.336164 -1.321452 -17.816728 -6.286499 -4.359768 12.377601 -3.606812 0.841903 17.027332 -0.579055 16.110675 -3.931512 -0.373801 -0.042361 0.000000 0.000000 0.000000 -86.678734 -3.211235 -1.682423 4.195176 2.524627 -1.887717 -1.223612 1.040025 -0.222928 0.477540 0.900935 -0.406794 0.000000 0.000000 0.000000 -2.208077 0.440277 0.166577 2.204447 0.747511 0.011148 10.504877 -5.239007 10.266355 0.000000 0.000000 0.000000 -2.693068 1.029727 0.182811 1.035329 -14.217547 -3.642839 -3.020364 0.059005 -4.065447 27.778521 0.800429 -69.228878 -178.992935 -38.955444 -178.284343 0.000000 0.000000 0.000000 -1.961129 0.688051 -0.745708 1.316303 3.089871 0.177171 1.270047 4.352941 0.247711 12.175260 6.188339 72.580199 -179.569266 47.020740 -179.186229 0.000000 0.000000 0.000000 
-1.821429 15.087715 28.384827 0.000000 0.000000 0.000000 -88.395427 -2.646652 0.812571 -31.141380 17.156149 -4.802163 34.986934 -0.851592 -2.936716 3.747153 4.586758 9.743228 6.122679 -0.557467 1.414297 0.000000 0.000000 0.000000 -90.504624 -2.339040 -1.320820 -17.823140 -6.294295 -4.360241 12.380749 -3.603453 0.841714 17.023702 -0.589109 16.106061 -3.922892 -0.373944 -0.042903 0.000000 0.000000 0.000000 -86.672683 -3.213437 -1.679644 4.189058 2.520496 -1.878438 -1.227929 1.040472 -0.220554 0.481403 0.894481 -0.405678 0.000000 0.000000 0.000000 -2.205868 0.442619 0.168880 2.204393 0.753546 0.009980 10.483710 -5.247666 10.275022 0.000000 0.000000 0.000000 -2.694629 1.032566 0.186238 1.031941 -14.188391 -3.669680 -3.024015 0.059521 -4.065388 27.761497 0.819330 -69.193375 -178.996281 -38.968985 -178.281871 0.000000 0.000000 0.000000 -1.962990 0.688911 -0.743334 1.317249 3.097511 0.178893 1.272867 4.372020 0.248789 12.180494 6.195893 72.563807 -179.567190 47.015105 -179.183633 0.000000 0.000000 0.000000 
-1.820592 15.083244 28.381790 0.000000 0.000000 0.000000 -88.392183 -2.650526 0.812592 -31.137623 17.156407 -4.802610 34.978908 -0.849060 -2.936969 3.742877 4.591672 9.748066 6.124873 -0.557042 1.413784 0.000000 0.000000 0.000000 -90.505348 -2.344645 -1.322201 -17.830168 -6.298940 -4.359955 12.386787 -3.600091 0.841407 17.021646 -0.599176 16.101094 -3.914839 -0.374541 -0.043047 0.000000 0.000000 0.000000 -86.667307 -3.216430 -1.676056 4.183361 2.516326 -1.866910 -1.232611 1.041095 -0.218263 0.483515 0.889024 -0.407058 0.000000 0.000000 0.000000 -2.203745 0.444239 0.170796 2.203239 0.759849 0.008137 10.462972 -5.257522 10.283072 0.000000 0.000000 0.000000 -2.696389 1.034795 0.189133 1.027315 -14.155236 -3.708717 -3.030189 0.069725 -4.065049 27.737233 0.839097 -69.148965 -179.001718 -38.986443 -178.279958 0.000000 0.000000 0.000000 -1.964147 0.689445 -0.741504 1.319362 3.109906 0.181696 1.271606 4.390321 0.252073 12.186423 6.207195 72.551212 -179.569717 47.014354 -179.177213 0.000000 0.000000 0.000000 
-1.819703 15.078453 28.377335 0.000000 0.000000 0.000000 -88.390837 -2.654007 0.813194 -31.133006 17.157717 -4.801623 34.969366 -0.846943 -2.938910 3.740932 4.596287 9.753676 6.126838 -0.556649 1.413700 0.000000 0.000000 0.000000 -90.507998 -2.351379 -1.324697 -17.836617 -6.300441 -4.358890 12.393370 -3.596434 0.841067 17.022759 -0.608666 16.096309 -3.911345 -0.375397 -0.042904 0.000000 0.000000 0.000000 -86.662991 -3.220437 -1.672576 4.178423 2.511325 -1.853383 -1.237464 1.041389 -0.216720 0.481473 0.886758 -0.408036 0.000000 0.000000 0.000000 -2.201195 0.444970 0.171688 2.201143 0.767595 0.006410 10.443678 -5.266878 10.290520 0.000000 0.000000 0.000000 -2.698220 1.036186 0.191183 1.022702 -14.121079 -3.750671 -3.036506 0.084885 -4.064536 27.714760 0.851742 -69.105477 -179.008330 -39.006182 -178.279330 0.000000 0.000000 0.000000 -1.964386 0.689224 -0.740900 1.321833 3.124564 0.183466 1.271171 4.407275 0.256090 12.190396 6.218333 72.543869 -179.576301 47.019849 -179.167774 0.000000 0.000000 0.000000 
